<svg width="512" height="512" viewBox="0 0 512 512" fill="none" xmlns="http://www.w3.org/2000/svg">
<rect width="512" height="512" fill="white"/>
<rect width="512" height="512" fill="#2196F3"/>
<circle cx="255.5" cy="256.5" r="161.5" fill="white"/>
<rect x="119" y="123" width="272" height="269" fill="#2196F3"/>
<rect x="130" y="132" width="251" height="248" fill="white"/>
<path d="M277.257 261.75V279.25H294.752L294.748 296.743L312.252 296.747V314.247H294.752V296.75L277.257 296.747V314.247H259.757V296.747L277.252 296.75V279.25H259.757V261.75H277.257ZM236.124 261.751C243.372 261.751 249.249 267.628 249.249 274.876V301.124C249.249 308.372 243.372 314.249 236.124 314.249H209.876C202.628 314.249 196.751 308.372 196.751 301.124V274.876C196.751 267.628 202.628 261.751 209.876 261.751H236.124ZM236.124 272.251H209.876C208.427 272.251 207.251 273.427 207.251 274.876V301.124C207.251 302.573 208.427 303.749 209.876 303.749H236.124C237.573 303.749 238.749 302.573 238.749 301.124V274.876C238.749 273.427 237.573 272.251 236.124 272.251ZM232.188 278.813V297.188H213.812V278.813H232.188ZM312.252 261.75V279.25H294.752V261.75H312.252ZM236.124 198.751C243.372 198.751 249.249 204.628 249.249 211.876V238.124C249.249 245.372 243.372 251.249 236.124 251.249H209.876C202.628 251.249 196.751 245.372 196.751 238.124V211.876C196.751 204.628 202.628 198.751 209.876 198.751H236.124ZM299.124 198.751C306.372 198.751 312.249 204.628 312.249 211.876V238.124C312.249 245.372 306.372 251.249 299.124 251.249H272.876C265.628 251.249 259.751 245.372 259.751 238.124V211.876C259.751 204.628 265.628 198.751 272.876 198.751H299.124ZM236.124 209.251H209.876C208.427 209.251 207.251 210.427 207.251 211.876V238.124C207.251 239.573 208.427 240.749 209.876 240.749H236.124C237.573 240.749 238.749 239.573 238.749 238.124V211.876C238.749 210.427 237.573 209.251 236.124 209.251ZM299.124 209.251H272.876C271.427 209.251 270.251 210.427 270.251 211.876V238.124C270.251 239.573 271.427 240.749 272.876 240.749H299.124C300.573 240.749 301.749 239.573 301.749 238.124V211.876C301.749 210.427 300.573 209.251 299.124 209.251ZM295.188 215.813V234.188H276.813V215.813H295.188ZM232.173 215.827V234.173H213.827V215.827H232.173Z" fill="#212121"/>
</svg>
