<svg width="360" height="800" viewBox="0 0 360 800" fill="none" xmlns="http://www.w3.org/2000/svg">
<rect width="360" height="800" fill="white"/>
<rect width="360" height="800" fill="#2196F3"/>
<circle cx="180.5" cy="399.5" r="161.5" fill="white"/>
<path d="M77.096 621.36C75.368 621.36 73.876 620.984 72.62 620.232C71.372 619.48 70.408 618.428 69.728 617.076C69.056 615.724 68.72 614.152 68.72 612.36C68.72 610.568 69.056 608.996 69.728 607.644C70.408 606.292 71.372 605.24 72.62 604.488C73.876 603.736 75.368 603.36 77.096 603.36C79.08 603.36 80.744 603.852 82.088 604.836C83.44 605.82 84.392 607.152 84.944 608.832L81.656 609.744C81.336 608.696 80.796 607.884 80.036 607.308C79.276 606.724 78.296 606.432 77.096 606.432C76 606.432 75.084 606.676 74.348 607.164C73.62 607.652 73.072 608.34 72.704 609.228C72.336 610.116 72.152 611.16 72.152 612.36C72.152 613.56 72.336 614.604 72.704 615.492C73.072 616.38 73.62 617.068 74.348 617.556C75.084 618.044 76 618.288 77.096 618.288C78.296 618.288 79.276 617.996 80.036 617.412C80.796 616.828 81.336 616.016 81.656 614.976L84.944 615.888C84.392 617.568 83.44 618.9 82.088 619.884C80.744 620.868 79.08 621.36 77.096 621.36ZM93.4183 621.36C92.1143 621.36 90.9703 621.068 89.9863 620.484C89.0023 619.9 88.2343 619.096 87.6823 618.072C87.1383 617.04 86.8663 615.856 86.8663 614.52C86.8663 613.168 87.1463 611.98 87.7063 610.956C88.2663 609.924 89.0383 609.12 90.0223 608.544C91.0063 607.968 92.1383 607.68 93.4183 607.68C94.7223 607.68 95.8663 607.972 96.8503 608.556C97.8423 609.14 98.6143 609.948 99.1663 610.98C99.7183 612.004 99.9943 613.184 99.9943 614.52C99.9943 615.864 99.7143 617.052 99.1543 618.084C98.6023 619.108 97.8303 619.912 96.8383 620.496C95.8543 621.072 94.7143 621.36 93.4183 621.36ZM93.4183 618.312C94.4663 618.312 95.2463 617.96 95.7583 617.256C96.2783 616.544 96.5383 615.632 96.5383 614.52C96.5383 613.368 96.2743 612.448 95.7463 611.76C95.2263 611.072 94.4503 610.728 93.4183 610.728C92.7063 610.728 92.1223 610.888 91.6663 611.208C91.2103 611.528 90.8703 611.972 90.6463 612.54C90.4303 613.108 90.3223 613.768 90.3223 614.52C90.3223 615.68 90.5823 616.604 91.1023 617.292C91.6303 617.972 92.4023 618.312 93.4183 618.312ZM118.233 621V613.344C118.233 612.488 118.029 611.824 117.621 611.352C117.221 610.872 116.665 610.632 115.953 610.632C115.497 610.632 115.101 610.74 114.765 610.956C114.429 611.164 114.165 611.46 113.973 611.844C113.789 612.22 113.697 612.656 113.697 613.152L112.329 612.24C112.329 611.352 112.537 610.568 112.953 609.888C113.377 609.208 113.941 608.68 114.645 608.304C115.357 607.92 116.145 607.728 117.009 607.728C118.489 607.728 119.605 608.168 120.357 609.048C121.117 609.92 121.497 611.064 121.497 612.48V621H118.233ZM102.609 621V608.04H105.489V612.336H105.897V621H102.609ZM110.433 621V613.344C110.433 612.488 110.229 611.824 109.821 611.352C109.421 610.872 108.865 610.632 108.153 610.632C107.473 610.632 106.925 610.868 106.509 611.34C106.101 611.804 105.897 612.408 105.897 613.152L104.529 612.192C104.529 611.344 104.741 610.584 105.165 609.912C105.589 609.24 106.157 608.708 106.869 608.316C107.589 607.924 108.393 607.728 109.281 607.728C110.297 607.728 111.129 607.944 111.777 608.376C112.433 608.808 112.917 609.384 113.229 610.104C113.541 610.824 113.697 611.616 113.697 612.48V621H110.433ZM130.978 621.36C129.69 621.36 128.614 621.06 127.75 620.46C126.886 619.86 126.234 619.044 125.794 618.012C125.362 616.98 125.146 615.816 125.146 614.52C125.146 613.224 125.362 612.06 125.794 611.028C126.226 609.996 126.862 609.18 127.702 608.58C128.542 607.98 129.578 607.68 130.81 607.68C132.05 607.68 133.13 607.976 134.05 608.568C134.97 609.16 135.682 609.972 136.186 611.004C136.698 612.028 136.954 613.2 136.954 614.52C136.954 615.816 136.702 616.98 136.198 618.012C135.702 619.044 135.006 619.86 134.11 620.46C133.214 621.06 132.17 621.36 130.978 621.36ZM124.594 626.76V608.04H127.474V616.92H127.882V626.76H124.594ZM130.45 618.456C131.154 618.456 131.73 618.28 132.178 617.928C132.626 617.576 132.958 617.104 133.174 616.512C133.39 615.912 133.498 615.248 133.498 614.52C133.498 613.8 133.386 613.144 133.162 612.552C132.938 611.952 132.59 611.476 132.118 611.124C131.654 610.764 131.058 610.584 130.33 610.584C129.65 610.584 129.098 610.748 128.674 611.076C128.258 611.404 127.954 611.864 127.762 612.456C127.57 613.048 127.474 613.736 127.474 614.52C127.474 615.304 127.57 615.992 127.762 616.584C127.954 617.176 128.266 617.636 128.698 617.964C129.138 618.292 129.722 618.456 130.45 618.456ZM139.834 621V603.36H143.098V621H139.834ZM150.296 621.36C149.368 621.36 148.58 621.184 147.932 620.832C147.292 620.472 146.804 619.996 146.468 619.404C146.14 618.804 145.976 618.144 145.976 617.424C145.976 616.824 146.068 616.276 146.252 615.78C146.436 615.284 146.732 614.848 147.14 614.472C147.556 614.088 148.112 613.768 148.808 613.512C149.288 613.336 149.86 613.18 150.524 613.044C151.188 612.908 151.94 612.78 152.78 612.66C153.62 612.532 154.544 612.392 155.552 612.24L154.376 612.888C154.376 612.12 154.192 611.556 153.824 611.196C153.456 610.836 152.84 610.656 151.976 610.656C151.496 610.656 150.996 610.772 150.476 611.004C149.956 611.236 149.592 611.648 149.384 612.24L146.432 611.304C146.76 610.232 147.376 609.36 148.28 608.688C149.184 608.016 150.416 607.68 151.976 607.68C153.12 607.68 154.136 607.856 155.024 608.208C155.912 608.56 156.584 609.168 157.04 610.032C157.296 610.512 157.448 610.992 157.496 611.472C157.544 611.952 157.568 612.488 157.568 613.08V621H154.712V618.336L155.12 618.888C154.488 619.76 153.804 620.392 153.068 620.784C152.34 621.168 151.416 621.36 150.296 621.36ZM150.992 618.792C151.592 618.792 152.096 618.688 152.504 618.48C152.92 618.264 153.248 618.02 153.488 617.748C153.736 617.476 153.904 617.248 153.992 617.064C154.16 616.712 154.256 616.304 154.28 615.84C154.312 615.368 154.328 614.976 154.328 614.664L155.288 614.904C154.32 615.064 153.536 615.2 152.936 615.312C152.336 615.416 151.852 615.512 151.484 615.6C151.116 615.688 150.792 615.784 150.512 615.888C150.192 616.016 149.932 616.156 149.732 616.308C149.54 616.452 149.396 616.612 149.3 616.788C149.212 616.964 149.168 617.16 149.168 617.376C149.168 617.672 149.24 617.928 149.384 618.144C149.536 618.352 149.748 618.512 150.02 618.624C150.292 618.736 150.616 618.792 150.992 618.792ZM160.928 606.24V603.36H164.192V606.24H160.928ZM160.928 621V608.04H164.192V621H160.928ZM176.621 621V614.88C176.621 614.584 176.605 614.208 176.573 613.752C176.541 613.288 176.441 612.824 176.273 612.36C176.105 611.896 175.829 611.508 175.445 611.196C175.069 610.884 174.533 610.728 173.837 610.728C173.557 610.728 173.257 610.772 172.937 610.86C172.617 610.948 172.317 611.12 172.037 611.376C171.757 611.624 171.525 611.992 171.341 612.48C171.165 612.968 171.077 613.616 171.077 614.424L169.205 613.536C169.205 612.512 169.413 611.552 169.829 610.656C170.245 609.76 170.869 609.036 171.701 608.484C172.541 607.932 173.597 607.656 174.869 607.656C175.885 607.656 176.713 607.828 177.353 608.172C177.993 608.516 178.489 608.952 178.841 609.48C179.201 610.008 179.457 610.56 179.609 611.136C179.761 611.704 179.853 612.224 179.885 612.696C179.917 613.168 179.933 613.512 179.933 613.728V621H176.621ZM167.765 621V608.04H170.669V612.336H171.077V621H167.765ZM190.823 621C189.927 621.168 189.047 621.24 188.183 621.216C187.327 621.2 186.559 621.052 185.879 620.772C185.207 620.484 184.695 620.024 184.343 619.392C184.023 618.8 183.855 618.2 183.839 617.592C183.823 616.976 183.815 616.28 183.815 615.504V604.44H187.079V615.312C187.079 615.816 187.083 616.272 187.091 616.68C187.107 617.08 187.191 617.4 187.343 617.64C187.631 618.096 188.091 618.344 188.723 618.384C189.355 618.424 190.055 618.392 190.823 618.288V621ZM181.607 610.56V608.04H190.823V610.56H181.607ZM198.516 621V603.72H205.428C206.66 603.72 207.656 603.968 208.416 604.464C209.176 604.952 209.732 605.568 210.084 606.312C210.436 607.056 210.612 607.808 210.612 608.568C210.612 609.536 210.392 610.34 209.952 610.98C209.52 611.62 208.924 612.048 208.164 612.264V611.664C209.244 611.888 210.052 612.388 210.588 613.164C211.132 613.94 211.404 614.808 211.404 615.768C211.404 616.8 211.212 617.708 210.828 618.492C210.452 619.276 209.876 619.892 209.1 620.34C208.324 620.78 207.348 621 206.172 621H198.516ZM201.828 617.928H205.836C206.276 617.928 206.668 617.836 207.012 617.652C207.356 617.46 207.624 617.196 207.816 616.86C208.016 616.516 208.116 616.112 208.116 615.648C208.116 615.24 208.032 614.876 207.864 614.556C207.696 614.236 207.44 613.984 207.096 613.8C206.76 613.608 206.34 613.512 205.836 613.512H201.828V617.928ZM201.828 610.464H205.38C205.748 610.464 206.076 610.4 206.364 610.272C206.652 610.144 206.88 609.948 207.048 609.684C207.216 609.412 207.3 609.064 207.3 608.64C207.3 608.112 207.136 607.668 206.808 607.308C206.48 606.948 206.004 606.768 205.38 606.768H201.828V610.464ZM219.629 621.36C218.325 621.36 217.181 621.068 216.197 620.484C215.213 619.9 214.445 619.096 213.893 618.072C213.349 617.04 213.077 615.856 213.077 614.52C213.077 613.168 213.357 611.98 213.917 610.956C214.477 609.924 215.249 609.12 216.233 608.544C217.217 607.968 218.349 607.68 219.629 607.68C220.933 607.68 222.077 607.972 223.061 608.556C224.053 609.14 224.825 609.948 225.377 610.98C225.929 612.004 226.205 613.184 226.205 614.52C226.205 615.864 225.925 617.052 225.365 618.084C224.813 619.108 224.041 619.912 223.049 620.496C222.065 621.072 220.925 621.36 219.629 621.36ZM219.629 618.312C220.677 618.312 221.457 617.96 221.969 617.256C222.489 616.544 222.749 615.632 222.749 614.52C222.749 613.368 222.485 612.448 221.957 611.76C221.437 611.072 220.661 610.728 219.629 610.728C218.917 610.728 218.333 610.888 217.877 611.208C217.421 611.528 217.081 611.972 216.857 612.54C216.641 613.108 216.533 613.768 216.533 614.52C216.533 615.68 216.793 616.604 217.313 617.292C217.841 617.972 218.613 618.312 219.629 618.312ZM226.935 621L231.567 614.448L227.031 608.04H230.871L233.463 611.88L236.007 608.04H239.847L235.311 614.448L239.967 621H236.127L233.463 617.016L230.775 621H226.935ZM245.503 621L250.783 603.72H255.655L260.935 621H257.575L252.871 605.76H253.495L248.863 621H245.503ZM248.671 617.4V614.352H257.791V617.4H248.671ZM269.446 621.36C268.158 621.36 267.082 621.06 266.218 620.46C265.354 619.86 264.702 619.044 264.262 618.012C263.83 616.98 263.614 615.816 263.614 614.52C263.614 613.224 263.83 612.06 264.262 611.028C264.694 609.996 265.33 609.18 266.17 608.58C267.01 607.98 268.046 607.68 269.278 607.68C270.518 607.68 271.598 607.976 272.518 608.568C273.438 609.16 274.15 609.972 274.654 611.004C275.166 612.028 275.422 613.2 275.422 614.52C275.422 615.816 275.17 616.98 274.666 618.012C274.17 619.044 273.474 619.86 272.578 620.46C271.682 621.06 270.638 621.36 269.446 621.36ZM263.062 626.76V608.04H265.942V616.92H266.35V626.76H263.062ZM268.918 618.456C269.622 618.456 270.198 618.28 270.646 617.928C271.094 617.576 271.426 617.104 271.642 616.512C271.858 615.912 271.966 615.248 271.966 614.52C271.966 613.8 271.854 613.144 271.63 612.552C271.406 611.952 271.058 611.476 270.586 611.124C270.122 610.764 269.526 610.584 268.798 610.584C268.118 610.584 267.566 610.748 267.142 611.076C266.726 611.404 266.422 611.864 266.23 612.456C266.038 613.048 265.942 613.736 265.942 614.52C265.942 615.304 266.038 615.992 266.23 616.584C266.422 617.176 266.734 617.636 267.166 617.964C267.606 618.292 268.19 618.456 268.918 618.456ZM284.423 621.36C283.135 621.36 282.059 621.06 281.195 620.46C280.331 619.86 279.679 619.044 279.239 618.012C278.807 616.98 278.591 615.816 278.591 614.52C278.591 613.224 278.807 612.06 279.239 611.028C279.671 609.996 280.307 609.18 281.147 608.58C281.987 607.98 283.023 607.68 284.255 607.68C285.495 607.68 286.575 607.976 287.495 608.568C288.415 609.16 289.127 609.972 289.631 611.004C290.143 612.028 290.399 613.2 290.399 614.52C290.399 615.816 290.147 616.98 289.643 618.012C289.147 619.044 288.451 619.86 287.555 620.46C286.659 621.06 285.615 621.36 284.423 621.36ZM278.039 626.76V608.04H280.919V616.92H281.327V626.76H278.039ZM283.895 618.456C284.599 618.456 285.175 618.28 285.623 617.928C286.071 617.576 286.403 617.104 286.619 616.512C286.835 615.912 286.943 615.248 286.943 614.52C286.943 613.8 286.831 613.144 286.607 612.552C286.383 611.952 286.035 611.476 285.563 611.124C285.099 610.764 284.503 610.584 283.775 610.584C283.095 610.584 282.543 610.748 282.119 611.076C281.703 611.404 281.399 611.864 281.207 612.456C281.015 613.048 280.919 613.736 280.919 614.52C280.919 615.304 281.015 615.992 281.207 616.584C281.399 617.176 281.711 617.636 282.143 617.964C282.583 618.292 283.167 618.456 283.895 618.456Z" fill="white"/>
<rect x="44" y="266" width="272" height="269" fill="#2196F3"/>
<rect x="55" y="275" width="251" height="248" fill="white"/>
<path d="M202.257 404.75V422.25H219.752L219.748 439.743L237.252 439.747V457.247H219.752V439.75L202.257 439.747V457.247H184.757V439.747L202.252 439.75V422.25H184.757V404.75H202.257ZM161.124 404.751C168.372 404.751 174.249 410.628 174.249 417.876V444.124C174.249 451.372 168.372 457.249 161.124 457.249H134.876C127.628 457.249 121.751 451.372 121.751 444.124V417.876C121.751 410.628 127.628 404.751 134.876 404.751H161.124ZM161.124 415.251H134.876C133.427 415.251 132.251 416.427 132.251 417.876V444.124C132.251 445.573 133.427 446.749 134.876 446.749H161.124C162.573 446.749 163.749 445.573 163.749 444.124V417.876C163.749 416.427 162.573 415.251 161.124 415.251ZM157.188 421.812V440.188H138.812V421.812H157.188ZM237.252 404.75V422.25H219.752V404.75H237.252ZM161.124 341.751C168.372 341.751 174.249 347.628 174.249 354.876V381.124C174.249 388.372 168.372 394.249 161.124 394.249H134.876C127.628 394.249 121.751 388.372 121.751 381.124V354.876C121.751 347.628 127.628 341.751 134.876 341.751H161.124ZM224.124 341.751C231.372 341.751 237.249 347.628 237.249 354.876V381.124C237.249 388.372 231.372 394.249 224.124 394.249H197.876C190.628 394.249 184.751 388.372 184.751 381.124V354.876C184.751 347.628 190.628 341.751 197.876 341.751H224.124ZM161.124 352.251H134.876C133.427 352.251 132.251 353.427 132.251 354.876V381.124C132.251 382.573 133.427 383.749 134.876 383.749H161.124C162.573 383.749 163.749 382.573 163.749 381.124V354.876C163.749 353.427 162.573 352.251 161.124 352.251ZM224.124 352.251H197.876C196.427 352.251 195.251 353.427 195.251 354.876V381.124C195.251 382.573 196.427 383.749 197.876 383.749H224.124C225.573 383.749 226.749 382.573 226.749 381.124V354.876C226.749 353.427 225.573 352.251 224.124 352.251ZM220.188 358.812V377.187H201.813V358.812H220.188ZM157.173 358.827V377.173H138.827V358.827H157.173Z" fill="#212121"/>
</svg>
